<?xml version="1.0" standalone="no"?><!-- Generator: Gravit.io --><svg xmlns="http://www.w3.org/2000/svg" xmlns:xlink="http://www.w3.org/1999/xlink" style="isolation:isolate" viewBox="0 0 209 176" width="209" height="176"><defs><clipPath id="_clipPath_rIREPny3HkyaO7WGzK54ifsL9en2igaf"><rect width="209" height="176"/></clipPath></defs><g clip-path="url(#_clipPath_rIREPny3HkyaO7WGzK54ifsL9en2igaf)"><g><path d=" M 171.615 -0.351 C 149.744 -0.351 126.118 5.514 100.768 17.278 C 75.417 29.042 53.71 43.051 35.649 59.289 C 11.624 80.994 -0.382 102.957 -0.382 125.159 C -0.382 136.592 3.009 146.359 9.803 154.478 C 22.229 169.059 40.867 176.351 65.72 176.351 C 85.106 176.351 105.916 172.129 128.119 163.679 C 146.48 156.554 161.274 147.667 172.946 137.253 C 174.636 135.697 178.379 132.159 180.256 130.117 C 180.694 129.367 181.047 128.66 181.047 128.13 C 181.047 127.301 180.641 126.895 179.812 126.895 C 179.646 126.895 179.222 127.047 178.559 127.378 C 165.966 137.65 153.384 145.368 140.792 150.505 C 139.037 151.23 137.113 151.883 135.256 152.569 L 135.256 103.498 L 121.657 100.432 L 121.657 88.164 L 120.519 87.913 C 124.131 86.896 128.007 85.739 132.825 84.133 C 144.424 80.156 155.939 75.272 167.371 69.473 C 178.97 63.674 188.841 56.722 196.96 48.603 C 205.244 40.319 209.382 32.11 209.382 23.991 C 209.382 18.192 207.228 13.308 202.92 9.331 C 195.464 2.869 185.036 -0.351 171.615 -0.351 L 171.615 -0.351 Z  M 159.926 7.094 C 165.891 7.094 171.35 8.095 176.321 10.084 C 181.458 12.072 184.037 15.633 184.037 20.77 C 184.037 28.723 177.49 37.914 164.401 48.352 C 151.311 58.791 136.896 67.576 121.156 74.701 C 115.889 77.054 111.219 78.872 106.824 80.429 L 106.824 69.319 L 56.037 57.881 L 53.163 59.27 L 53.163 163.66 C 51.83 163.439 50.459 163.298 49.151 163.023 L 49.151 61.218 L 46.297 62.626 L 46.297 162.329 C 44.937 161.998 43.615 161.581 42.285 161.191 L 42.285 64.574 L 39.411 65.963 L 39.411 160.381 C 38.048 159.93 36.73 159.391 35.399 158.876 L 35.399 67.911 L 33.47 68.856 C 35.37 66.915 37.288 64.971 39.391 63.012 C 55.629 47.934 74.928 34.841 97.296 23.74 C 119.664 12.639 140.54 7.094 159.926 7.094 L 159.926 7.094 Z  M 32.525 69.801 L 32.525 109.922 L 25.677 108.378 L 24.134 109.131 L 24.134 153.475 C 23.372 152.978 22.675 152.413 21.954 151.874 L 21.954 110.172 L 20.411 110.925 L 20.411 150.698 C 19.654 150.072 18.938 149.407 18.232 148.73 L 18.232 111.985 L 16.689 112.738 L 16.689 147.187 C 15.925 146.369 15.206 145.506 14.509 144.622 L 14.509 113.799 L 12.966 114.551 L 12.966 142.616 C 12.832 142.422 12.673 142.253 12.542 142.056 C 8.565 136.092 6.581 129.12 6.581 121.167 C 6.581 104.828 15.263 87.71 32.525 69.801 Z  M 78.258 80.063 L 78.258 85.136 C 78.238 85.234 78.161 85.275 78.161 85.386 C 78.161 85.475 78.248 85.536 78.258 85.618 L 78.258 164.778 C 77.13 164.847 76.064 164.889 74.998 164.933 L 74.998 81.625 L 78.258 80.063 L 78.258 80.063 Z  M 72.683 82.763 L 72.683 165.048 C 71.903 165.068 70.94 165.164 70.195 165.164 C 69.937 165.164 69.7 165.126 69.443 165.126 L 69.443 84.345 L 72.683 82.763 L 72.683 82.763 Z  M 67.128 85.464 L 67.128 165.01 C 66.035 164.98 64.966 164.898 63.888 164.836 L 63.888 87.045 L 67.128 85.464 L 67.128 85.464 Z  M 100.208 96.94 L 100.208 162.039 C 99.322 162.211 98.484 162.413 97.585 162.579 L 97.585 98.213 L 100.208 96.94 L 100.208 96.94 Z  M 95.714 99.12 L 95.714 162.946 C 94.767 163.085 94.01 163.129 93.091 163.254 L 93.091 100.393 L 94.344 99.776 L 95.714 99.12 Z  M 91.22 101.299 L 91.22 163.486 C 90.32 163.603 89.468 163.691 88.596 163.795 L 88.596 102.573 L 91.22 101.299 Z " fill="rgb(255,255,255)"/></g></g></svg>